#!OML:ASF I:\golf\golf\golf 2\Subject 1\2002-09-07\Subject1.ASF
:FULLY-SPECIFIED
:DEGREES
369
root -2.80229 17.2311 -2.40863 70.8998 42.1001 12.9676
lowerback 42.4583 5.39898 10.8198
upperback 14.3793 11.8881 10.4642
thorax -4.0974 5.44806 1.2108
lowerneck -10.3328 -10.7533 1.6301
upperneck -7.45457 -15.1584 -3.15814
head -1.05335 -7.79128 -1.51794
rclavicle -1.27222e-014 -4.29375e-014
rhumerus 62.6884 -27.8914 -48.6587
rradius 27.3515
rwrist -6.85393
rhand -46.1009 17.5018
rfingers 7.12502
rthumb -18.8428 -11.6056
lclavicle -1.27222e-014 -4.29375e-014
lhumerus -16.2097 -27.966 91.9098
lradius 81.3869
lwrist 22.1932
lhand -11.9793 26.5959
lfingers 7.12502
lthumb 14.0769 56.0992
rfemur -92.1216 -7.75352 25.2428
rtibia 40.4156
rfoot -6.81515 0.431542
rtoes 19.313
lfemur -64.6538 -4.90952 -7.06671
ltibia 25.3402
lfoot -7.0189 -13.4488
ltoes -7.39903
370
root -2.79752 17.2255 -2.4103 70.9518 42.0967 13.0899
lowerback 42.5674 5.31581 10.9241
upperback 14.3431 11.8451 10.4228
thorax -4.13849 5.42783 1.12787
lowerneck -10.0159 -10.7405 1.53375
upperneck -7.81466 -15.137 -2.91635
head -1.19083 -7.77531 -1.39529
rclavicle -1.90833e-014 6.20208e-014
rhumerus 62.7758 -27.9664 -48.6281
rradius 27.181
rwrist -6.70835
rhand -45.9184 17.1292
rfingers 7.12502
rthumb -18.6672 -11.9951
lclavicle -1.90833e-014 6.20208e-014
lhumerus -16.1984 -27.9909 91.874
lradius 81.4187
lwrist 22.2152
lhand -12.0591 26.7007
lfingers 7.12502
lthumb 14.0001 56.2093
rfemur -92.1469 -7.86178 25.1998
rtibia 40.5018
rfoot -6.89684 0.41684
rtoes 19.4836
lfemur -64.6559 -4.98483 -7.1102
ltibia 25.3452
lfoot -6.79781 -13.506
ltoes -5.59848
371
root -2.80561 17.2207 -2.40139 71.0801 41.8891 12.9162
lowerback 42.3272 5.54487 10.5221
upperback 14.3456 11.9214 10.4079
thorax -4.14497 5.45686 1.27787
lowerneck -9.74341 -10.6837 1.45821
upperneck -8.12423 -15.0557 -2.73476
head -1.30997 -7.72971 -1.29924
rclavicle 2.8625e-014 -3.18055e-015
rhumerus 62.956 -27.9741 -48.7581
rradius 27.0116
rwrist -6.49505
rhand -45.7061 16.7794
rfingers 7.12502
rthumb -18.4629 -12.3644
lclavicle 2.8625e-014 -3.18055e-015
lhumerus -16.2452 -27.9191 91.7984
lradius 81.4535
lwrist 22.1564
lhand -12.1018 26.7756
lfingers 7.12502
lthumb 13.9589 56.287
rfemur -92.4459 -7.60798 25.0986
rtibia 40.5918
rfoot -6.89957 0.403472
rtoes 19.221
lfemur -64.826 -4.62786 -7.3242
ltibia 25.3249
lfoot -6.68097 -13.6641
ltoes -4.38526
372
root -2.81155 17.2152 -2.39545 71.1721 41.7022 12.8396
lowerback 42.1902 5.8714 10.1558
upperback 14.3894 12.1523 10.5362
thorax -4.16192 5.54922 1.49992
lowerneck -9.9221 -10.7206 1.6063
upperneck -8.08962 -15.1342 -2.91992
head -1.30019 -7.7755 -1.39074
rclavicle 4.13472e-014 -3.49861e-014
rhumerus 62.9008 -28.2538 -48.4048
rradius 26.8916
rwrist -6.41283
rhand -45.4151 16.1279
rfingers 7.12502
rthumb -18.183 -13.0422
lclavicle 4.13472e-014 -3.49861e-014
lhumerus -16.1864 -28.1333 91.9141
lradius 81.4516
lwrist 22.2074
lhand -12.0731 26.7987
lfingers 7.12502
lthumb 13.9865 56.3082
rfemur -92.6391 -7.44876 24.9526
rtibia 40.6636
rfoot -6.86425 0.381168
rtoes 18.8753
lfemur -64.9198 -4.40362 -7.54396
ltibia 25.321
lfoot -6.54333 -13.7952
ltoes -3.47909
373
root -2.80936 17.2101 -2.39715 71.2295 41.6161 12.9823
lowerback 42.2836 5.83396 10.1792
upperback 14.3895 12.1251 10.5079
thorax -4.1773 5.53634 1.46492
lowerneck -9.93941 -10.7559 1.59391
upperneck -8.14782 -15.1859 -2.90635
head -1.31582 -7.80215 -1.38402
rclavicle -6.99722e-014 -7.95139e-015
rhumerus 63.0918 -28.4442 -48.4203
rradius 26.685
rwrist -6.26732
rhand -45.0672 15.4945
rfingers 7.12502
rthumb -17.8484 -13.7064
lclavicle -6.99722e-014 -7.95139e-015
lhumerus -16.1415 -28.168 91.8731
lradius 81.468
lwrist 22.3266
lhand -12.0224 26.6798
lfingers 7.12502
lthumb 14.0354 56.1859
rfemur -92.6566 -7.54556 24.8381
rtibia 40.7299
rfoot -6.94012 0.318043
rtoes 18.8558
lfemur -64.8888 -4.50311 -7.67479
ltibia 25.3243
lfoot -6.50482 -13.7996
ltoes -3.1138
374
root -2.81737 17.2107 -2.39295 71.2287 41.611 12.7117
lowerback 42.0419 5.99743 10.0348
upperback 14.4254 12.226 10.5426
thorax -4.10455 5.58405 1.54675
lowerneck -9.84776 -10.7776 1.52785
upperneck -8.19351 -15.2064 -2.81703
head -1.33297 -7.81009 -1.33956
rclavicle -1.90833e-014 -5.08889e-014
rhumerus 63.3659 -28.5437 -48.6765
rradius 26.4733
rwrist -6.14747
rhand -44.8778 15.1228
rfingers 7.12502
rthumb -17.6661 -14.0947
lclavicle -1.90833e-014 -5.08889e-014
lhumerus -16.1429 -28.117 91.8242
lradius 81.4813
lwrist 22.3248
lhand -12.0044 26.4952
lfingers 7.12502
lthumb 14.0528 56.0001
rfemur -92.8677 -7.32478 25.059
rtibia 40.7789
rfoot -7.03188 0.370859
rtoes 19.0013
lfemur -65.014 -4.12259 -7.72752
ltibia 25.323
lfoot -6.52496 -14.0009
ltoes -3.27439
375
root -2.81121 17.2144 -2.40019 71.1567 41.7869 12.8125
lowerback 42.2698 5.83173 10.3993
upperback 14.3861 12.202 10.5379
thorax -4.13734 5.57444 1.37022
lowerneck -9.97559 -10.7056 1.73639
upperneck -8.18561 -15.1419 -3.05404
head -1.34462 -7.78327 -1.45095
rclavicle -5.40694e-014 1.27222e-014
rhumerus 63.573 -28.7293 -48.8258
rradius 26.1376
rwrist -6.02841
rhand -45.0999 14.9713
rfingers 7.12502
rthumb -17.8798 -14.2267
lclavicle -5.40694e-014 1.27222e-014
lhumerus -16.1152 -28.2093 91.8517
lradius 81.4395
lwrist 22.2458
lhand -11.8463 26.2912
lfingers 7.12502
lthumb 14.2051 55.7855
rfemur -92.769 -7.52033 25.268
rtibia 40.8314
rfoot -7.018 0.513347
rtoes 18.9453
lfemur -64.9237 -4.31844 -7.58443
ltibia 25.3199
lfoot -6.55594 -13.9592
ltoes -3.35838
376
root -2.80764 17.2169 -2.40682 71.0839 41.9184 12.9074
lowerback 42.5134 5.68106 10.6974
upperback 14.3444 12.1714 10.5063
thorax -4.18432 5.56029 1.19793
lowerneck -9.92012 -10.7464 1.80938
upperneck -8.2799 -15.2096 -3.00431
head -1.38764 -7.82009 -1.43996
rclavicle -2.8625e-014 4.29375e-014
rhumerus 64.0085 -28.9866 -49.2285
rradius 25.6352
rwrist -5.72247
rhand -45.4881 15.142
rfingers 7.12502
rthumb -18.2533 -14.0215
lclavicle -2.8625e-014 4.29375e-014
lhumerus -16.0866 -28.2837 91.8263
lradius 81.4196
lwrist 22.1195
lhand -11.6751 26.144
lfingers 7.12502
lthumb 14.37 55.6266
rfemur -92.6643 -7.6748 25.398
rtibia 40.8614
rfoot -7.02686 0.567758
rtoes 18.3785
lfemur -64.8396 -4.46899 -7.50647
ltibia 25.3378
lfoot -6.57256 -13.941
ltoes -3.06987
377
root -2.80721 17.214 -2.4114 71.1322 41.8932 12.9794
lowerback 42.5762 5.64414 10.761
upperback 14.3185 12.1569 10.463
thorax -4.20757 5.55359 1.12465
lowerneck -9.85675 -10.7665 1.76786
upperneck -8.35661 -15.229 -2.8601
head -1.40741 -7.8297 -1.38297
rclavicle -1.04958e-013 -5.725e-014
rhumerus 64.484 -29.2771 -49.7467
rradius 25.248
rwrist -5.31051
rhand -45.584 15.3906
rfingers 7.12502
rthumb -18.3455 -13.7643
lclavicle -1.04958e-013 -5.725e-014
lhumerus -16.1138 -28.3489 91.7861
lradius 81.5096
lwrist 22.0685
lhand -11.6958 26.1488
lfingers 7.12502
lthumb 14.3502 55.6329
rfemur -92.7111 -7.72003 25.3291
rtibia 40.9111
rfoot -7.05834 0.523092
rtoes 17.9683
lfemur -64.8446 -4.55925 -7.50274
ltibia 25.3211
lfoot -6.60755 -13.8736
ltoes -2.8111
